<svg width="100%" height="100%" viewBox="0 0 1149 316" version="1.1" xmlns="http://www.w3.org/2000/svg" xmlns:xlink="http://www.w3.org/1999/xlink" xml:space="preserve" xmlns:serif="http://www.serif.com/" style="fill-rule:evenodd;clip-rule:evenodd;stroke-linejoin:round;stroke-miterlimit:2;">
    <g transform="matrix(1.53773,0,0,1.53773,-217.098,-316.574)">
        <g transform="matrix(4.51531,0,0,4.51531,-1407.25,-1533.14)">
            <path d="M424.903,388.836L424.903,389.836C423.903,389.869 423.145,389.994 422.628,390.211C422.112,390.427 421.77,390.827 421.603,391.411C421.437,391.994 421.353,392.902 421.353,394.136L421.353,418.936C421.353,420.136 421.445,421.036 421.628,421.636C421.812,422.236 422.153,422.636 422.653,422.836C423.153,423.036 423.903,423.169 424.903,423.236L424.903,424.236C423.87,424.169 422.553,424.127 420.953,424.111C419.353,424.094 417.72,424.086 416.053,424.086C414.253,424.086 412.562,424.094 410.978,424.111C409.395,424.127 408.12,424.169 407.153,424.236L407.153,423.236C408.287,423.169 409.145,423.036 409.728,422.836C410.312,422.636 410.703,422.236 410.903,421.636C411.103,421.036 411.203,420.136 411.203,418.936L411.203,392.186L411.703,392.086L399.153,424.186L398.353,424.186L384.253,392.086L384.253,414.436C384.253,416.669 384.345,418.377 384.528,419.561C384.712,420.744 385.162,421.594 385.878,422.111C386.595,422.627 387.737,423.002 389.303,423.236L389.303,424.236C388.637,424.169 387.77,424.127 386.703,424.111C385.637,424.094 384.637,424.086 383.703,424.086C382.97,424.086 382.22,424.094 381.453,424.111C380.687,424.127 380.053,424.169 379.553,424.236L379.553,423.236C380.587,423.002 381.353,422.644 381.853,422.161C382.353,421.677 382.687,420.902 382.853,419.836C383.02,418.769 383.103,417.302 383.103,415.436L383.103,394.136C383.103,392.902 383.02,391.994 382.853,391.411C382.687,390.827 382.345,390.427 381.828,390.211C381.312,389.994 380.553,389.869 379.553,389.836L379.553,388.836C380.053,388.869 380.687,388.902 381.453,388.936C382.22,388.969 382.97,388.986 383.703,388.986C385.637,388.986 387.487,388.969 389.253,388.936C391.02,388.902 392.62,388.869 394.053,388.836L403.953,411.136L402.453,412.786L411.703,388.986L416.053,388.986C417.72,388.986 419.353,388.969 420.953,388.936C422.553,388.902 423.87,388.869 424.903,388.836Z" style="fill-rule:nonzero;"/>
            <path d="M433.753,424.586C432.187,424.586 430.903,424.286 429.903,423.686C428.903,423.086 428.178,422.302 427.728,421.336C427.278,420.369 427.053,419.352 427.053,418.286C427.053,416.886 427.37,415.744 428.003,414.861C428.637,413.977 429.462,413.261 430.478,412.711C431.495,412.161 432.57,411.702 433.703,411.336C434.837,410.969 435.912,410.611 436.928,410.261C437.945,409.911 438.77,409.494 439.403,409.011C440.037,408.527 440.353,407.902 440.353,407.136L440.353,402.686C440.353,402.152 440.262,401.569 440.078,400.936C439.895,400.302 439.553,399.752 439.053,399.286C438.553,398.819 437.803,398.586 436.803,398.586C436.27,398.586 435.762,398.661 435.278,398.811C434.795,398.961 434.37,399.169 434.003,399.436C435.17,399.869 436.02,400.477 436.553,401.261C437.087,402.044 437.353,402.902 437.353,403.836C437.353,405.169 436.887,406.219 435.953,406.986C435.02,407.752 433.92,408.136 432.653,408.136C431.32,408.136 430.287,407.719 429.553,406.886C428.82,406.052 428.453,405.019 428.453,403.786C428.453,402.752 428.712,401.877 429.228,401.161C429.745,400.444 430.52,399.786 431.553,399.186C432.553,398.619 433.753,398.211 435.153,397.961C436.553,397.711 438.02,397.586 439.553,397.586C441.187,397.586 442.703,397.744 444.103,398.061C445.503,398.377 446.703,399.052 447.703,400.086C448.403,400.819 448.853,401.736 449.053,402.836C449.253,403.936 449.353,405.352 449.353,407.086L449.353,420.486C449.353,421.319 449.412,421.886 449.528,422.186C449.645,422.486 449.853,422.636 450.153,422.636C450.42,422.636 450.678,422.552 450.928,422.386C451.178,422.219 451.42,422.052 451.653,421.886L452.153,422.736C451.42,423.369 450.512,423.836 449.428,424.136C448.345,424.436 447.203,424.586 446.003,424.586C444.57,424.586 443.462,424.411 442.678,424.061C441.895,423.711 441.345,423.244 441.028,422.661C440.712,422.077 440.537,421.452 440.503,420.786C439.803,421.886 438.928,422.794 437.878,423.511C436.828,424.227 435.453,424.586 433.753,424.586ZM438.503,420.586C438.87,420.586 439.195,420.527 439.478,420.411C439.762,420.294 440.053,420.069 440.353,419.736L440.353,409.186C440.12,409.619 439.812,410.044 439.428,410.461C439.045,410.877 438.653,411.302 438.253,411.736C437.853,412.169 437.478,412.636 437.128,413.136C436.778,413.636 436.495,414.211 436.278,414.861C436.062,415.511 435.953,416.269 435.953,417.136C435.953,418.402 436.195,419.294 436.678,419.811C437.162,420.327 437.77,420.586 438.503,420.586Z" style="fill-rule:nonzero;"/>
            <path d="M471.803,397.586C473.003,397.586 473.937,397.844 474.603,398.361C475.27,398.877 475.737,399.527 476.003,400.311C476.27,401.094 476.403,401.869 476.403,402.636C476.403,404.136 475.978,405.327 475.128,406.211C474.278,407.094 473.17,407.536 471.803,407.536C470.337,407.536 469.228,407.202 468.478,406.536C467.728,405.869 467.353,405.002 467.353,403.936C467.353,402.802 467.595,401.869 468.078,401.136C468.562,400.402 469.17,399.786 469.903,399.286C469.303,399.286 468.77,399.402 468.303,399.636C467.903,399.802 467.52,400.036 467.153,400.336C466.787,400.636 466.47,400.977 466.203,401.361C465.937,401.744 465.728,402.169 465.578,402.636C465.428,403.102 465.353,403.586 465.353,404.086L465.353,419.086C465.353,420.686 465.687,421.769 466.353,422.336C467.02,422.902 468.12,423.186 469.653,423.186L469.653,424.236C468.887,424.202 467.745,424.161 466.228,424.111C464.712,424.061 463.153,424.036 461.553,424.036C460.053,424.036 458.537,424.061 457.003,424.111C455.47,424.161 454.32,424.202 453.553,424.236L453.553,423.186C454.587,423.186 455.312,422.936 455.728,422.436C456.145,421.936 456.353,420.986 456.353,419.586L456.353,403.736C456.353,402.236 456.153,401.127 455.753,400.411C455.353,399.694 454.62,399.336 453.553,399.336L453.553,398.286C454.62,398.386 455.653,398.436 456.653,398.436C458.32,398.436 459.878,398.377 461.328,398.261C462.778,398.144 464.12,397.969 465.353,397.736L465.353,401.336C465.787,400.469 466.32,399.761 466.953,399.211C467.587,398.661 468.312,398.252 469.128,397.986C469.945,397.719 470.837,397.586 471.803,397.586Z" style="fill-rule:nonzero;"/>
            <path d="M484.603,385.136C486.337,385.136 487.678,385.494 488.628,386.211C489.578,386.927 490.053,388.002 490.053,389.436C490.053,390.869 489.578,391.944 488.628,392.661C487.678,393.377 486.337,393.736 484.603,393.736C482.87,393.736 481.528,393.377 480.578,392.661C479.628,391.944 479.153,390.869 479.153,389.436C479.153,388.002 479.628,386.927 480.578,386.211C481.528,385.494 482.87,385.136 484.603,385.136ZM489.403,397.736L489.403,419.586C489.403,420.986 489.612,421.936 490.028,422.436C490.445,422.936 491.17,423.186 492.203,423.186L492.203,424.236C491.537,424.202 490.537,424.161 489.203,424.111C487.87,424.061 486.503,424.036 485.103,424.036C483.703,424.036 482.287,424.061 480.853,424.111C479.42,424.161 478.337,424.202 477.603,424.236L477.603,423.186C478.637,423.186 479.362,422.936 479.778,422.436C480.195,421.936 480.403,420.986 480.403,419.586L480.403,403.736C480.403,402.236 480.203,401.127 479.803,400.411C479.403,399.694 478.67,399.336 477.603,399.336L477.603,398.286C478.67,398.386 479.703,398.436 480.703,398.436C482.37,398.436 483.928,398.377 485.378,398.261C486.828,398.144 488.17,397.969 489.403,397.736Z" style="fill-rule:nonzero;"/>
        </g>
        <g transform="matrix(2.16507,-0.316117,0.316117,2.16507,-422.905,-265.225)">
            <path d="M229.013,319.071C229.463,319.021 230.063,319.071 230.613,318.871C231.313,318.571 232.063,318.321 232.713,318.021C233.613,317.671 234.313,317.021 235.113,316.521C236.563,315.621 237.813,314.471 239.013,313.271C239.713,312.521 240.413,311.771 241.063,310.971C241.913,309.971 242.763,308.971 243.413,307.771C243.963,306.821 244.513,305.821 244.863,304.771C245.163,303.871 245.313,302.971 245.063,302.071C244.763,301.121 244.363,300.171 243.663,299.371L242.613,298.121C242.513,298.021 242.513,297.921 242.663,297.871L243.013,297.721L246.163,296.921C247.613,296.571 249.013,296.221 250.463,295.971C251.313,295.821 252.163,295.671 253.063,295.871C253.263,295.871 253.563,295.871 253.763,295.821C254.113,295.771 254.463,295.671 254.563,295.321C254.563,295.321 254.713,295.121 254.463,294.871L254.263,294.721C253.613,294.371 252.863,294.071 252.113,294.071C251.213,294.121 250.313,294.021 249.413,294.121C248.563,294.271 247.713,294.321 246.913,294.521C246.013,294.671 245.163,294.971 244.263,295.221C242.963,295.571 242.113,295.821 240.813,296.221C240.513,296.321 240.263,296.321 240.013,296.171C239.663,295.921 239.013,295.271 238.613,295.121C237.563,294.771 236.513,294.371 235.413,294.071C234.113,293.771 232.813,293.571 231.513,293.321C230.313,293.071 229.113,292.871 227.963,292.571L226.713,292.271C225.763,291.971 225.863,290.871 226.163,290.421C226.613,289.821 227.013,289.221 227.413,288.621C227.913,287.971 228.363,287.271 228.813,286.621C229.513,285.621 230.213,284.671 230.963,283.721C231.463,283.071 232.063,282.521 232.563,281.821C232.613,281.721 232.763,281.621 232.863,281.521C233.913,280.721 234.913,279.921 235.913,279.071C236.413,278.671 237.013,278.321 237.363,277.721C237.413,277.621 237.563,277.571 237.613,277.471L240.113,275.621C240.713,275.171 241.363,274.921 242.163,275.221C242.513,275.421 242.863,275.171 243.163,275.071C243.213,275.071 243.263,274.921 243.263,274.871C243.213,274.571 243.063,274.271 242.813,274.121C242.363,273.771 241.863,273.521 241.313,273.471C239.513,273.171 237.813,273.671 237.463,273.721C237.363,273.771 237.263,273.821 237.163,273.821C236.863,273.721 236.663,273.921 236.513,274.071C235.863,274.671 235.213,275.221 234.463,275.721L233.213,276.721C232.763,277.121 232.313,277.421 231.863,277.771C231.213,278.221 230.613,278.721 230.113,279.321C229.813,279.721 229.413,280.071 228.963,280.371C228.363,280.821 227.763,281.421 227.413,282.071C226.913,282.871 226.413,283.621 225.813,284.321C224.863,285.471 224.113,286.821 223.213,288.021C223.163,288.421 222.863,288.671 222.563,288.971C222.113,289.371 221.963,290.021 221.863,290.571C221.813,290.721 221.863,290.921 221.913,291.121C222.313,291.971 222.963,292.621 223.763,293.021C224.313,293.321 224.963,293.471 225.513,293.721C226.763,294.221 228.013,294.421 229.263,294.771C230.113,294.971 230.963,295.221 231.863,295.321C233.013,295.421 234.113,295.671 235.263,295.921C235.863,296.071 236.913,296.521 237.513,296.771C237.563,296.771 237.613,296.821 237.613,296.871C237.663,296.921 237.563,296.971 237.513,296.971C237.413,297.071 237.313,297.121 237.213,297.121C235.663,297.621 234.113,298.221 232.663,298.921C231.163,299.571 229.713,300.321 228.413,301.371C227.663,301.971 226.963,302.621 226.213,303.271C225.713,303.771 225.263,304.321 224.763,304.871C224.013,305.721 221.263,309.871 220.963,310.921C220.613,311.971 220.463,313.021 220.863,314.121C220.813,314.571 221.113,314.871 221.363,315.121C221.963,315.671 222.513,316.221 223.213,316.571L223.513,316.871C224.213,317.621 225.063,318.121 226.013,318.471C226.863,318.771 227.663,319.121 228.563,319.021C228.663,319.021 228.763,319.021 229.013,319.071ZM224.163,313.021C224.163,311.871 224.513,310.821 225.013,309.821C225.463,308.821 226.013,307.921 226.613,306.971C227.013,306.371 227.513,305.871 228.063,305.321C229.413,303.921 230.863,302.571 232.563,301.571C233.263,301.121 234.063,300.721 234.913,300.371C236.163,299.871 237.513,299.421 238.813,298.971C239.113,298.821 239.463,298.771 239.763,298.671C240.113,298.571 240.363,298.671 240.563,298.971C241.213,299.771 241.563,300.721 241.813,301.721C241.813,301.871 241.813,302.021 241.763,302.171C241.563,303.121 241.313,304.071 240.813,304.921C240.263,305.971 239.663,307.071 238.913,308.071C237.913,309.271 236.863,310.471 235.713,311.571C234.163,313.021 232.413,314.271 230.663,315.521C229.463,316.321 228.163,316.671 226.813,317.021C226.663,317.071 226.513,317.021 226.413,316.971C225.313,316.271 224.663,315.321 224.263,314.121C224.163,313.771 224.163,313.421 224.163,313.021Z"/>
            <path d="M289.513,299.071C289.513,300.321 289.463,301.621 289.563,302.871C289.613,303.821 289.713,304.821 290.113,305.721C290.363,306.321 290.663,306.471 291.213,306.171C291.463,306.071 291.663,305.921 291.813,305.721C292.163,305.221 292.463,304.721 292.513,304.121L292.713,302.071C292.813,300.971 292.963,299.921 293.013,298.871C293.013,297.971 292.913,297.021 292.863,296.121C292.813,294.321 292.363,292.571 291.913,290.871C291.563,289.521 290.263,288.421 289.013,288.671C288.863,288.671 288.713,288.621 288.563,288.621C288.063,288.471 287.613,288.571 287.163,288.771C286.363,289.171 285.563,289.621 284.863,290.271C283.963,291.221 283.113,292.171 282.463,293.321C282.113,293.821 281.813,294.321 281.513,294.821C281.463,294.821 281.413,294.871 281.313,294.871L281.313,294.721L281.463,293.521L281.913,289.471C281.963,289.071 282.013,288.671 282.013,288.271C282.013,287.471 281.613,286.871 280.913,286.721C280.113,286.521 279.213,286.371 278.463,286.871C274.863,290.671 269.363,297.921 268.313,300.871L267.913,301.821C267.863,301.871 267.763,301.971 267.713,301.971C267.663,301.921 267.563,301.821 267.563,301.771L267.363,298.921C267.313,297.671 267.213,296.421 267.213,295.121C267.213,293.421 266.913,291.721 266.763,290.071C266.713,289.421 266.463,288.871 265.863,288.521C265.513,288.321 265.163,288.571 264.813,288.521C263.913,288.371 263.413,288.871 262.913,289.521C262.363,290.371 261.763,291.221 261.163,292.071C260.813,292.521 260.663,292.571 260.163,292.271C259.513,291.971 258.863,291.821 258.163,291.921C257.063,292.121 255.963,292.321 254.863,292.571C254.713,292.621 254.563,292.771 254.463,292.921C253.813,293.971 253.213,295.121 252.913,296.321C252.263,298.471 251.713,300.671 251.663,302.971C251.663,303.871 251.663,304.771 252.613,305.221L252.913,305.571C253.613,306.121 254.863,306.271 255.563,305.871C256.263,305.471 256.863,304.971 257.313,304.271C257.813,303.471 258.313,302.721 258.713,301.921C259.713,300.171 260.613,298.371 261.613,296.571L263.463,293.471C263.513,293.371 263.663,293.321 263.763,293.271C263.763,293.371 263.813,293.421 263.813,293.521C263.913,294.321 263.963,295.171 264.013,295.971L264.413,301.721C264.513,303.071 264.863,304.221 265.963,305.121C266.663,305.721 267.363,305.921 268.263,305.821C269.013,305.721 269.613,305.421 269.963,304.721C270.463,303.821 270.913,302.821 271.313,301.871C271.863,300.721 275.063,294.821 276.363,293.171C276.813,292.521 277.363,291.921 277.913,291.321C277.913,291.271 278.013,291.271 278.063,291.271C278.063,291.321 278.113,291.371 278.113,291.421L277.763,294.321L277.513,296.321L277.063,300.321C276.963,301.071 276.813,301.771 276.763,302.471C276.713,303.671 276.413,304.821 276.663,306.021C276.813,306.621 277.063,307.021 277.513,307.321C278.163,307.771 278.913,307.571 279.213,306.821C279.413,306.321 279.563,305.821 279.613,305.271C279.763,303.871 280.213,302.571 280.913,301.421C282.013,299.621 283.213,297.821 284.363,296.071C285.063,294.971 285.763,293.821 286.563,292.721C287.063,292.021 287.663,291.321 288.413,290.821C288.663,290.671 288.813,290.771 288.863,291.021C288.913,291.171 288.963,291.321 288.963,291.471C289.113,292.421 289.213,293.421 289.413,294.371C289.713,295.921 289.413,297.521 289.513,299.071ZM255.013,302.121C255.313,300.271 255.663,298.521 256.363,296.921C256.563,296.521 256.963,296.221 257.363,295.971C257.813,295.671 258.313,295.471 258.813,295.221C258.863,295.221 258.963,295.221 259.013,295.271C259.063,295.321 259.063,295.471 259.013,295.521C258.713,296.171 258.363,296.771 258.013,297.421L255.513,301.921C255.513,302.021 255.463,302.121 255.413,302.171L255.163,302.371L255.013,302.121Z"/>
        </g>
    </g>
</svg>